# xmcd CD database file
#
# Track frame offsets:
#	150
#	4538
#	27200
#	55125
#	69550
#
# Disc length: 1258 seconds
#
# Revision: 0
# Processed by: cddbd v1.5.1PL2 Copyright (c) Steve Scherf et al.
# Submitted via: CDex 1.51
#
DISCID=3404e805
DTITLE=kannivalism - 奏功humority
DYEAR=2006
DGENRE=Rock
TTITLE0=humority
TTITLE1=赤裸々
TTITLE2=クライベイビー
TTITLE3=ストイックボーイ
TTITLE4=in a brown study
EXTD=YEAR: 2006
EXTT0=
EXTT1=
EXTT2=
EXTT3=
EXTT4=
PLAYORDER=
